<svg width="118" height="52" viewBox="0 0 118 52" fill="none" xmlns="http://www.w3.org/2000/svg">
<path d="M5.36777 0V25.3884H0V0H5.36777Z" fill="black"/>
<path d="M14.9659 14.3802V25.3884H9.68492V6.34711H14.718V9.70661H14.9411C15.3626 8.59917 16.0692 7.72314 17.0609 7.07851C18.0527 6.42562 19.2552 6.09917 20.6684 6.09917C21.9907 6.09917 23.1436 6.38843 24.1271 6.96694C25.1105 7.54545 25.875 8.3719 26.4205 9.44628C26.9659 10.5124 27.2386 11.7851 27.2386 13.2645V25.3884H21.9576V14.2066C21.9659 13.0413 21.6684 12.1322 21.0651 11.4793C20.4618 10.8182 19.6312 10.4876 18.5733 10.4876C17.8626 10.4876 17.2345 10.6405 16.689 10.9463C16.1519 11.2521 15.7304 11.6983 15.4246 12.2851C15.1271 12.8636 14.9742 13.562 14.9659 14.3802Z" fill="black"/>
<path d="M48.4711 6.34711L41.814 25.3884H35.8636L29.2066 6.34711H34.7851L38.7397 19.9711H38.938L42.8802 6.34711H48.4711Z" fill="black"/>
<path d="M59.2376 25.7603C57.2789 25.7603 55.593 25.3636 54.1797 24.5702C52.7748 23.7686 51.6921 22.6364 50.9318 21.1736C50.1715 19.7025 49.7913 17.9628 49.7913 15.9545C49.7913 13.9959 50.1715 12.2769 50.9318 10.7975C51.6921 9.31818 52.7624 8.16529 54.1426 7.33884C55.531 6.5124 57.1591 6.09917 59.0269 6.09917C60.2831 6.09917 61.4525 6.30165 62.5351 6.70661C63.626 7.10331 64.5764 7.70248 65.3864 8.50413C66.2045 9.30579 66.8409 10.314 67.2954 11.5289C67.75 12.7355 67.9773 14.1488 67.9773 15.7686V17.219H51.8988V13.9463H63.0062C63.0062 13.1859 62.8409 12.5124 62.5103 11.9256C62.1797 11.3388 61.7211 10.8802 61.1343 10.5496C60.5558 10.2107 59.8822 10.0413 59.1136 10.0413C58.312 10.0413 57.6012 10.2273 56.9814 10.5992C56.3698 10.9628 55.8905 11.4545 55.5434 12.0744C55.1963 12.6859 55.0186 13.3678 55.0103 14.1198V17.2314C55.0103 18.1736 55.1839 18.9876 55.531 19.6736C55.8864 20.3595 56.3864 20.8884 57.031 21.2603C57.6756 21.6322 58.4401 21.8182 59.3244 21.8182C59.9112 21.8182 60.4483 21.7355 60.9359 21.5702C61.4236 21.405 61.8409 21.157 62.188 20.8264C62.5351 20.4959 62.7996 20.0909 62.9814 19.6116L67.8657 19.9339C67.6178 21.1074 67.1095 22.1322 66.3409 23.0083C65.5806 23.876 64.5971 24.5537 63.3905 25.0413C62.1921 25.5207 60.8078 25.7603 59.2376 25.7603Z" fill="black"/>
<path d="M87.2665 11.7769L82.4318 12.0744C82.3492 11.6612 82.1715 11.2893 81.8988 10.9587C81.626 10.6198 81.2665 10.3512 80.8202 10.1529C80.3822 9.94628 79.8574 9.84298 79.2459 9.84298C78.4277 9.84298 77.7376 10.0165 77.1756 10.3636C76.6136 10.7025 76.3326 11.157 76.3326 11.7273C76.3326 12.1818 76.5145 12.5661 76.8781 12.8802C77.2417 13.1942 77.8657 13.4463 78.75 13.6364L82.1963 14.3306C84.0475 14.7107 85.4277 15.3223 86.3368 16.1653C87.2459 17.0083 87.7004 18.1157 87.7004 19.4876C87.7004 20.7355 87.3326 21.8306 86.5971 22.7727C85.8698 23.7149 84.8698 24.4504 83.5971 24.9793C82.3326 25.5 80.874 25.7603 79.2211 25.7603C76.7004 25.7603 74.6921 25.2355 73.1963 24.1859C71.7087 23.1281 70.8368 21.6901 70.5806 19.8719L75.7748 19.5992C75.9318 20.3678 76.312 20.9545 76.9153 21.3595C77.5186 21.7562 78.2913 21.9545 79.2335 21.9545C80.1591 21.9545 80.9029 21.7769 81.4649 21.4215C82.0351 21.0578 82.3244 20.5909 82.3326 20.0207C82.3244 19.5413 82.1219 19.1488 81.7252 18.843C81.3285 18.5289 80.7169 18.2893 79.8905 18.124L76.593 17.4669C74.7335 17.095 73.3492 16.4504 72.4401 15.5331C71.5393 14.6157 71.0888 13.4463 71.0888 12.0248C71.0888 10.8017 71.4194 9.74793 72.0806 8.86364C72.75 7.97934 73.688 7.29752 74.8946 6.81818C76.1095 6.33884 77.531 6.09917 79.1591 6.09917C81.564 6.09917 83.4566 6.60744 84.8368 7.62397C86.2252 8.6405 87.0351 10.0248 87.2665 11.7769Z" fill="black"/>
<path d="M101.154 6.34711V10.314H89.687V6.34711H101.154ZM92.2903 1.78512H97.5713V19.5372C97.5713 20.0248 97.6457 20.405 97.7944 20.6777C97.9432 20.9421 98.1498 21.1281 98.4142 21.2355C98.687 21.343 99.001 21.3967 99.3564 21.3967C99.6043 21.3967 99.8523 21.376 100.1 21.3347C100.348 21.2851 100.538 21.2479 100.67 21.2231L101.501 25.1529C101.237 25.2355 100.865 25.3306 100.385 25.438C99.906 25.5537 99.3233 25.624 98.6374 25.6488C97.3647 25.6983 96.249 25.5289 95.2903 25.1405C94.3399 24.7521 93.6002 24.1488 93.0713 23.3306C92.5423 22.5124 92.282 21.4793 92.2903 20.2314V1.78512Z" fill="black"/>
<path d="M104.594 25.3884V6.34711H109.714V9.66942H109.912C110.259 8.4876 110.842 7.59504 111.66 6.99174C112.478 6.38017 113.42 6.07438 114.487 6.07438C114.751 6.07438 115.036 6.09091 115.342 6.12397C115.648 6.15703 115.916 6.20248 116.148 6.26033V10.9463C115.9 10.8719 115.557 10.8058 115.119 10.7479C114.681 10.6901 114.28 10.6612 113.916 10.6612C113.139 10.6612 112.445 10.8306 111.834 11.1694C111.23 11.5 110.751 11.9628 110.396 12.5579C110.049 13.1529 109.875 13.8388 109.875 14.6157V25.3884H104.594Z" fill="black"/>
<path d="M72.2805 41.0072H70.3716C70.3368 40.7602 70.2656 40.5409 70.1581 40.3491C70.0506 40.1544 69.9126 39.9888 69.7441 39.8523C69.5755 39.7157 69.3809 39.6111 69.1601 39.5385C68.9422 39.4658 68.7054 39.4295 68.4497 39.4295C67.9877 39.4295 67.5853 39.5443 67.2424 39.7738C66.8996 40.0005 66.6338 40.3317 66.4449 40.7675C66.256 41.2004 66.1616 41.7263 66.1616 42.3452C66.1616 42.9815 66.256 43.5161 66.4449 43.949C66.6367 44.3819 66.904 44.7088 67.2468 44.9296C67.5897 45.1504 67.9863 45.2608 68.4366 45.2608C68.6894 45.2608 68.9233 45.2274 69.1383 45.1606C69.3562 45.0938 69.5494 44.9964 69.7179 44.8686C69.8864 44.7378 70.0259 44.5795 70.1363 44.3935C70.2496 44.2076 70.3281 43.9955 70.3716 43.7572L72.2805 43.7659C72.2311 44.1756 72.1077 44.5708 71.9101 44.9514C71.7154 45.3291 71.4525 45.6676 71.1213 45.9668C70.7929 46.2632 70.4007 46.4985 69.9445 46.6729C69.4913 46.8443 68.9785 46.93 68.4061 46.93C67.61 46.93 66.8981 46.7499 66.2706 46.3896C65.6459 46.0293 65.152 45.5078 64.7888 44.825C64.4285 44.1422 64.2484 43.3156 64.2484 42.3452C64.2484 41.3718 64.4314 40.5438 64.7975 39.861C65.1636 39.1782 65.6604 38.6581 66.288 38.3007C66.9156 37.9405 67.6216 37.7603 68.4061 37.7603C68.9233 37.7603 69.4027 37.833 69.8443 37.9782C70.2888 38.1235 70.6825 38.3356 71.0254 38.6145C71.3682 38.8906 71.6471 39.229 71.8622 39.63C72.0801 40.031 72.2195 40.49 72.2805 41.0072Z" fill="#F0C800"/>
<path d="M73.6338 46.808V37.8824H77.1552C77.8293 37.8824 78.4046 38.0029 78.8811 38.2441C79.3605 38.4823 79.7251 38.8208 79.975 39.2596C80.2277 39.6954 80.3541 40.2082 80.3541 40.798C80.3541 41.3907 80.2263 41.9006 79.9706 42.3277C79.7149 42.7519 79.3445 43.0774 78.8593 43.304C78.377 43.5306 77.793 43.6439 77.1073 43.6439H74.7495V42.1273H76.8022C77.1625 42.1273 77.4617 42.0779 77.7 41.9791C77.9382 41.8803 78.1155 41.7321 78.2317 41.5345C78.3508 41.337 78.4104 41.0915 78.4104 40.798C78.4104 40.5016 78.3508 40.2518 78.2317 40.0484C78.1155 39.845 77.9368 39.691 77.6956 39.5864C77.4574 39.4789 77.1567 39.4252 76.7935 39.4252H75.5209V46.808H73.6338ZM78.454 42.7461L80.6723 46.808H78.5891L76.4187 42.7461H78.454Z" fill="#F0C800"/>
<path d="M80.7932 37.8824H82.907L84.9422 41.7263H85.0294L87.0647 37.8824H89.1784L85.9228 43.6526V46.808H84.0488V43.6526L80.7932 37.8824Z" fill="#F0C800"/>
<path d="M90.2091 46.808V37.8824H93.7306C94.4076 37.8824 94.9843 38.0117 95.4608 38.2702C95.9373 38.5259 96.3005 38.8818 96.5503 39.338C96.8031 39.7913 96.9295 40.3142 96.9295 40.907C96.9295 41.4997 96.8017 42.0227 96.546 42.4759C96.2903 42.9292 95.9199 43.2822 95.4346 43.535C94.9523 43.7877 94.3683 43.9141 93.6826 43.9141H91.4382V42.4018H93.3776C93.7407 42.4018 94.04 42.3394 94.2754 42.2144C94.5136 42.0866 94.6908 41.9108 94.8071 41.6871C94.9262 41.4605 94.9857 41.2004 94.9857 40.907C94.9857 40.6106 94.9262 40.352 94.8071 40.1312C94.6908 39.9075 94.5136 39.7346 94.2754 39.6126C94.0371 39.4876 93.7349 39.4252 93.3688 39.4252H92.0962V46.808H90.2091Z" fill="#F0C800"/>
<path d="M97.8153 39.4382V37.8824H105.146V39.4382H102.413V46.808H100.548V39.4382H97.8153Z" fill="#F0C800"/>
<path d="M114.148 42.3452C114.148 43.3185 113.963 44.1466 113.594 44.8294C113.228 45.5121 112.728 46.0337 112.095 46.394C111.465 46.7513 110.756 46.93 109.968 46.93C109.175 46.93 108.463 46.7499 107.833 46.3896C107.202 46.0293 106.704 45.5078 106.338 44.825C105.972 44.1422 105.789 43.3156 105.789 42.3452C105.789 41.3718 105.972 40.5438 106.338 39.861C106.704 39.1782 107.202 38.6581 107.833 38.3007C108.463 37.9405 109.175 37.7603 109.968 37.7603C110.756 37.7603 111.465 37.9405 112.095 38.3007C112.728 38.6581 113.228 39.1782 113.594 39.861C113.963 40.5438 114.148 41.3718 114.148 42.3452ZM112.234 42.3452C112.234 41.7147 112.14 41.183 111.951 40.7501C111.765 40.3171 111.502 39.9888 111.162 39.7651C110.822 39.5414 110.424 39.4295 109.968 39.4295C109.512 39.4295 109.114 39.5414 108.774 39.7651C108.434 39.9888 108.17 40.3171 107.981 40.7501C107.795 41.183 107.702 41.7147 107.702 42.3452C107.702 42.9757 107.795 43.5074 107.981 43.9403C108.17 44.3732 108.434 44.7015 108.774 44.9252C109.114 45.149 109.512 45.2608 109.968 45.2608C110.424 45.2608 110.822 45.149 111.162 44.9252C111.502 44.7015 111.765 44.3732 111.951 43.9403C112.14 43.5074 112.234 42.9757 112.234 42.3452Z" fill="#F0C800"/>
<rect x="61.7484" y="33.2603" width="54.8994" height="18.1697" rx="4.5" stroke="#F0BB00"/>
</svg>
